HIERARCHY
ROOT Hips
{
  OFFSET 8.12952 102.331 -256.731
  CHANNELS 6 Xposition Yposition Zposition Zrotation Xrotation Yrotation
  JOINT RightUpLeg
  {
    OFFSET -8.9458 -8.66707 0.101652
    CHANNELS 3 Zrotation Xrotation Yrotation
    JOINT RightLeg
    {
      OFFSET 0 -44.4227 1.3727
      CHANNELS 3 Zrotation Xrotation Yrotation
      JOINT RightFoot
      {
        OFFSET 0.253549 -42.0924 -1.46059
        CHANNELS 3 Zrotation Xrotation Yrotation
        JOINT RightToes
        {
          OFFSET 0.04 -4.41509 8.4991
          CHANNELS 3 Zrotation Xrotation Yrotation
          End Site
          {
            OFFSET -0.08 -0.137448 9.77979
          }
        }
      }
    }
  }
  JOINT Spine
  {
    OFFSET 0 11.8905 0
    CHANNELS 3 Zrotation Xrotation Yrotation
    JOINT Spine1
    {
      OFFSET 0 25.6574 0.127663
      CHANNELS 3 Zrotation Xrotation Yrotation
      JOINT HEad
      {
        OFFSET 0 8.73416 0.011341
        CHANNELS 3 Zrotation Xrotation Yrotation
        End Site
        {
          OFFSET -0.29 12.7742 2.51395
        }
      }
      JOINT LeftShoulder1
      {
        OFFSET 8.99 -0.362252 -0.22
        CHANNELS 3 Zrotation Xrotation Yrotation
        JOINT LeftArm
        {
          OFFSET 10.2827 -0.00338 0.322123
          CHANNELS 3 Zrotation Xrotation Yrotation
          JOINT LeftForeArm
          {
            OFFSET 32.7669 0.099144 -1.42434
            CHANNELS 3 Zrotation Xrotation Yrotation
            JOINT LeftHand
            {
              OFFSET 27.5643 0.085362 1.02216
              CHANNELS 3 Zrotation Xrotation Yrotation
              End Site
              {
                OFFSET 16.7443 -0.6 1.50291
              }
            }
          }
        }
      }
      JOINT RightShoulder
      {
        OFFSET -8.99 -0.362252 -0.22
        CHANNELS 3 Zrotation Xrotation Yrotation
        JOINT RightArm
        {
          OFFSET -10.2827 -0.00338 0.322123
          CHANNELS 3 Zrotation Xrotation Yrotation
          JOINT RightForeArm
          {
            OFFSET -32.8971 0.099144 -1.42434
            CHANNELS 3 Zrotation Xrotation Yrotation
            JOINT RightHand
            {
              OFFSET -27.4921 0.085362 1.02216
              CHANNELS 3 Zrotation Xrotation Yrotation
              End Site
              {
                OFFSET -16.6312 -0.6 1.50291
              }
            }
          }
        }
      }
    }
  }
  JOINT LeftUpLeg
  {
    OFFSET 8.9458 -8.66707 0.101652
    CHANNELS 3 Zrotation Xrotation Yrotation
    JOINT LeftLeg
    {
      OFFSET 0 -44.4227 1.3727
      CHANNELS 3 Zrotation Xrotation Yrotation
      JOINT LeftFoot
      {
        OFFSET -0.253549 -42.0924 -1.46059
        CHANNELS 3 Zrotation Xrotation Yrotation
        JOINT LeftToes
        {
          OFFSET -0.04 -4.41509 8.4991
          CHANNELS 3 Zrotation Xrotation Yrotation
          End Site
          {
            OFFSET 0.08 -0.047448 9.77979
          }
        }
      }
    }
  }
}
MOTION
Frames:	19
Frame Time:	0.0166667
7.45811 99.4609 -66.1216 -1.59808 -3.45151 -2.34215 4.06033 11.1788 -1.55382 5.82912 40.9148 -19.3531 5.3208 -12.9292 0.23759 -0.155897 3.19624 2.00216 3.86807 2.53007 -1.47391 -5.16682 6.98774 0.148955 1.70833 -6.84886 -9.02893 -1.49089e-016 1.59028e-015 -0 -84.7564 -36.951 -8.78245 -25.4882 12.4416 -4.46032 0.368473 9.90896 -0.00117927 -8.25371 0.116606 5.7545 109.987 -8.82771 33.4228 17.9 13.1507 4.65303 -0.369625 9.91382 0.00119887 -0.891405 -22.0835 -3.27499 -3.79999 16.9548 11.6099 5.31618 -0.823136 -0.0335775 13.9787 -31.801 18.5128 
7.53521 99.5568 -63.786 -0.6231 -3.41703 -1.60658 2.94087 10.5483 -1.75101 5.88827 43.2217 -19.8727 5.59306 -10.3544 0.140979 -0.369479 7.51989 2.3184 3.81548 2.49829 -1.94809 -7.18463 6.4445 0.168748 2.61492 -6.91814 -9.24305 -5.46658e-016 -7.95139e-016 7.95139e-016 -84.3287 -37.9598 -10.5445 -24.3913 11.8869 -1.49827 0.368473 9.90896 -0.00117927 -7.78383 0.161739 6.35992 110.598 -10.3088 31.9425 17.6744 12.9905 3.69223 -0.369625 9.91382 0.00119887 -2.09603 -21.8892 -2.84481 -4.11937 19.283 10.7405 5.62734 -2.73548 0.0550292 13.6428 -32.2837 17.9944 
7.70135 99.6598 -61.508 0.267328 -3.47287 -1.05556 1.59192 9.59671 -1.66358 6.61477 45.7618 -20.9772 5.7943 -6.6953 -0.0235235 -0.577357 11.9024 2.49436 3.72852 2.42971 -2.30842 -8.56721 6.18714 0.181279 2.74975 -6.85388 -9.44675 2.48481e-016 7.95139e-016 3.97569e-016 -84.5623 -39.0749 -12.4575 -23.3863 11.5591 0.57946 0.368473 9.90896 -0.00117927 -8.11226 0.138698 6.99049 111.43 -11.5551 30.6254 17.3552 12.8224 2.64313 -0.369625 9.91382 0.00119887 -3.34566 -21.2493 -1.49483 -3.79381 21.1353 8.59593 5.95651 -4.54231 0.144578 14.1751 -32.0994 18.7313 
7.94887 99.7528 -59.3556 1.05384 -3.54879 -0.640929 0.196478 8.21207 -1.66419 7.54307 48.7565 -22.2784 5.99989 -2.70312 -0.214513 -0.704495 15.6749 2.30962 3.54345 2.40585 -2.54325 -9.45618 6.09443 0.192671 2.41864 -6.76979 -9.63831 -6.95746e-016 -7.95139e-016 3.97569e-016 -85.1175 -39.8362 -14.2832 -22.6705 11.3918 1.83888 0.368473 9.90896 -0.00117927 -8.75366 0.0865487 7.42891 112.158 -12.6971 29.4442 17.0245 12.6462 1.52743 -0.369625 9.91382 0.00119887 -4.58578 -20.4168 -0.361464 -3.31528 22.5854 6.72525 6.28684 -6.28863 0.239505 14.661 -31.8627 19.4126 
8.32529 99.8314 -57.4238 1.67421 -3.59086 -0.342271 -1.18066 6.26469 -2.05357 8.42035 52.5391 -23.3034 6.29367 1.33192 -0.426697 -0.595685 17.8532 1.36007 3.15582 2.53654 -2.5941 -9.76229 6.12438 0.212199 1.6847 -6.71001 -9.83313 -6.95746e-016 -7.95139e-016 -7.95139e-016 -85.7125 -39.7457 -15.6778 -22.5372 11.3463 2.10582 0.368473 9.90896 -0.00117927 -9.41149 0.0247364 7.33484 112.437 -13.7428 28.3951 16.8119 12.4525 0.322741 -0.369625 9.91382 0.00119887 -5.6649 -19.5715 -0.847567 -3.41208 23.5524 7.03964 6.64359 -7.78967 0.338238 14.1367 -32.3728 18.6403 
8.74413 99.9085 -55.6761 2.18531 -3.60258 -0.278502 -2.46707 3.8574 -2.7529 8.76585 56.6784 -24.546 6.50003 4.60816 -0.603273 -0.333598 19.0344 0.08139 2.59576 2.74944 -2.51209 -9.6934 6.23054 0.232524 0.769731 -6.74825 -9.90793 -4.96962e-016 0 -0 -86.2399 -39.2064 -16.6121 -22.7757 11.4445 1.50911 0.368473 9.90896 -0.00117927 -10.041 -0.0352104 7.00301 112.462 -14.7312 27.541 16.5912 12.2638 -0.877346 -0.369625 9.91382 0.00119887 -6.54289 -18.7093 -1.94844 -3.85507 24.1252 8.35344 6.93001 -9.07514 0.430046 13.4133 -33.1279 17.584 
9.13437 99.9932 -54.1401 2.64559 -3.53534 -0.634678 -3.61737 0.936762 -4.04493 7.71266 60.9691 -26.7817 6.42128 5.95538 -0.665776 -0.0252259 19.4598 -1.27045 1.78117 3.04112 -2.29649 -9.37727 6.31014 0.245847 -0.135702 -6.99913 -9.71568 -1.2424e-015 0 -3.97569e-016 -86.5519 -38.4725 -16.8048 -23.3309 11.7281 -0.150622 0.368473 9.90896 -0.00117927 -10.5411 -0.0771026 6.62296 112.314 -15.6751 26.9813 16.2682 12.0897 -2.08202 -0.369625 9.91382 0.00119887 -7.17119 -17.9281 -3.32568 -4.65577 24.298 10.3261 7.00048 -10.0463 0.49705 13.1195 -33.9643 17.0925 
9.49719 100.093 -52.7181 2.99122 -3.49077 -1.19177 -4.5802 -2.14739 -5.16541 6.75989 64.9549 -29.0986 6.11734 6.19015 -0.657583 0.243746 19.2239 -2.44217 0.938891 3.31469 -2.04409 -8.96468 6.49016 0.262791 -0.868203 -7.38503 -9.34292 -2.98177e-016 0 -7.95139e-016 -86.7567 -37.4533 -16.8535 -23.9525 12.0544 -2.07839 0.368473 9.90896 -0.00117927 -10.7804 -0.0949787 6.17 111.992 -16.6703 26.6158 15.8897 11.9667 -3.00801 -0.369625 9.91382 0.00119887 -7.57253 -17.0901 -4.43704 -5.42181 24.2406 12.1876 7.02187 -10.9038 0.557768 12.9584 -34.6922 16.7957 
9.80215 100.23 -51.3207 3.16948 -3.60012 -1.82059 -5.00681 -5.02289 -5.30859 5.97666 68.1667 -29.2736 5.47487 5.59046 -0.580266 0.394933 18.5376 -3.09289 0.300546 3.4402 -1.87035 -8.69881 6.9509 0.299142 -1.11332 -7.95313 -8.74429 -1.10348e-032 -1.59028e-015 -3.97569e-016 -86.8059 -36.103 -17.2384 -24.4145 12.311 -3.49571 0.368473 9.90896 -0.00117927 -10.5621 -0.0717676 5.73241 111.563 -17.8411 26.4511 15.4181 11.9509 -3.33203 -0.369625 9.91382 0.00119887 -7.8004 -16.0322 -4.52531 -5.72267 24.1387 12.9511 7.14774 -11.8363 0.62809 12.8208 -34.9723 16.5832 
10.0731 100.372 -49.95 3.19186 -3.72595 -2.43754 -5.03478 -7.86166 -4.86437 5.36823 70.7594 -28.6355 4.87592 4.60113 -0.488024 0.420153 17.3305 -3.26713 -0.217042 3.51311 -1.71907 -8.4315 7.42952 0.331791 -1.12519 -8.44367 -8.16734 6.95746e-016 -3.18055e-015 -0 -86.8923 -34.5288 -17.9545 -24.6912 12.5092 -4.53177 0.368473 9.90896 -0.00117927 -9.97903 -0.0243167 5.16089 110.868 -19.1248 26.2775 15.027 12.0031 -3.18611 -0.369625 9.91382 0.00119887 -7.87328 -14.966 -3.94673 -5.72571 24.0925 12.9579 7.28068 -12.7813 0.699663 12.7778 -35.076 16.5137 
10.3316 100.485 -48.5768 3.01823 -3.75028 -2.94921 -4.68513 -10.7636 -3.78239 6.29137 72.6848 -28.9004 4.79172 3.87511 -0.450005 0.269954 15.5002 -2.6407 -0.603011 3.59242 -1.55821 -8.02183 7.67993 0.335609 -1.1424 -8.60485 -7.84131 1.98785e-016 0 -7.95139e-016 -87.2634 -32.8791 -19.2218 -24.6225 12.6049 -4.94961 0.368473 9.90896 -0.00117927 -9.08353 0.0415358 4.32102 109.726 -20.5283 25.8564 14.8964 12.1021 -2.53934 -0.369625 9.91382 0.00119887 -7.78143 -14.1028 -2.49481 -5.31761 24.3381 11.9429 7.34052 -13.7538 0.766403 12.8857 -35.3161 16.6308 
10.5539 100.592 -47.2062 2.77022 -3.74797 -3.25447 -4.07693 -13.5511 -2.53641 7.84452 73.9125 -29.5969 4.82636 3.06625 -0.420984 0.171059 13.3277 -2.03657 -0.912106 3.65775 -1.43058 -7.68751 7.83217 0.331862 -0.96192 -8.45509 -7.78054 -3.97569e-016 0 1.59028e-015 -87.6047 -30.9753 -20.7839 -24.3919 12.6562 -5.06752 0.368473 9.90896 -0.00117927 -7.79877 0.10982 3.25646 108.185 -21.9927 25.2519 14.9492 12.2359 -1.55292 -0.369625 9.91382 0.00119887 -7.62752 -13.2491 -1.08049 -4.91566 24.5826 10.736 7.42818 -14.7098 0.837237 13.0557 -35.2318 16.8622 
10.7101 100.709 -45.8222 2.55797 -3.73518 -3.15155 -3.48985 -16.0692 -1.69026 9.51296 74.3574 -30.8619 4.70435 2.02802 -0.37497 0.199971 11.1999 -2.20565 -1.18545 3.71404 -1.38447 -7.66254 7.87969 0.332554 -0.361307 -7.83411 -8.15016 6.95746e-016 0 -7.95139e-016 -87.5906 -28.6233 -22.4161 -24.1587 12.7199 -5.22548 0.368473 9.90896 -0.00117927 -5.93571 0.170526 1.92186 106.117 -23.4869 24.3649 15.2235 12.3864 -0.342289 -0.369625 9.91382 0.00119887 -7.41417 -12.2982 -0.708317 -5.03921 24.5832 10.2054 7.66734 -15.6263 0.925952 13.191 -34.0469 17.1719 
10.8392 100.816 -44.4587 2.36986 -3.76983 -2.84932 -2.93409 -18.3393 -0.995426 11.0213 74.1382 -32.187 4.54279 0.814476 -0.324152 0.309799 8.72937 -2.91763 -1.45258 3.7444 -1.37148 -7.75847 7.98618 0.340574 0.412233 -7.0308 -8.72446 4.96962e-016 -3.18055e-015 -1.59028e-015 -87.5051 -26.0628 -24.3046 -23.8149 12.7428 -5.12602 0.368473 9.90896 -0.00117927 -3.88843 0.199294 0.449741 103.874 -24.9239 23.426 15.5553 12.549 0.985877 -0.369625 9.91382 0.00119887 -7.21913 -11.2727 -0.841828 -5.3448 24.4775 10.0067 7.91079 -16.456 1.01202 13.3282 -33.03 17.4824 
10.9771 100.893 -43.1516 2.25829 -3.93065 -2.52148 -2.52104 -20.3379 -0.439778 11.7347 73.3786 -33.0027 4.36645 -0.617583 -0.27024 0.47259 5.30864 -4.33058 -1.7941 3.72284 -1.35145 -7.85693 8.3386 0.363757 1.16186 -6.28756 -9.29053 0 0 -7.95139e-016 -87.601 -23.5448 -26.6217 -23.2615 12.674 -4.50304 0.368473 9.90896 -0.00117927 -2.05824 0.163223 -1.0472 101.868 -26.2198 22.6767 15.7516 12.7235 2.3109 -0.369625 9.91382 0.00119887 -7.17556 -10.146 -1.36579 -5.68434 24.3148 10.1739 8.00506 -17.0971 1.07049 13.5287 -33.725 17.6665 
11.1038 100.957 -41.8793 2.14806 -4.17117 -2.07138 -2.16572 -22.0497 0.118811 12.1734 72.0237 -33.6521 4.17602 -2.12287 -0.21844 0.535761 1.99147 -6.05654 -2.09867 3.68149 -1.34793 -7.98274 8.86052 0.399468 1.92187 -5.5803 -9.97656 5.96354e-016 4.77083e-015 -1.19271e-015 -87.6468 -20.8296 -29.1675 -22.6246 12.5574 -3.60374 0.368473 9.90896 -0.00117927 -0.25004 0.0780654 -2.55486 99.9113 -27.3138 22.0186 15.9456 12.8879 3.55747 -0.369625 9.91382 0.00119887 -7.16082 -8.93649 -2.03494 -5.96296 24.1057 10.428 8.08694 -17.6897 1.12651 13.7388 -34.5061 17.8488 
11.2101 101.019 -40.634 1.96859 -4.48523 -1.40454 -1.7924 -23.4141 0.806761 12.7836 70.0124 -34.4297 3.94338 -3.63903 -0.17404 0.590085 -0.118259 -7.93503 -2.25752 3.64582 -1.381 -8.14483 9.56732 0.451327 2.66019 -4.93857 -10.9084 1.98785e-015 1.59028e-015 -7.95139e-016 -87.499 -17.6837 -31.9093 -21.9549 12.4073 -2.48554 0.368473 9.90896 -0.00117927 1.68054 -0.060101 -4.06193 97.9053 -28.1088 21.4431 16.217 13.0206 4.59331 -0.369625 9.91382 0.00119887 -7.13644 -7.6368 -2.51236 -5.96991 23.8874 10.4094 8.2698 -18.4193 1.20665 13.9311 -33.5785 18.2176 
11.2994 101.074 -39.4093 1.76431 -4.82982 -0.687541 -1.39927 -24.5365 1.70486 13.1831 67.482 -35.0005 3.77506 -4.96042 -0.13823 0.579786 -1.80243 -9.46161 -2.344 3.60976 -1.42099 -8.27368 10.3706 0.50871 3.37699 -4.44271 -11.8787 -2.48481e-016 1.59028e-015 -0 -87.1082 -14.4604 -34.6315 -21.3814 12.2652 -1.45114 0.368473 9.90896 -0.00117927 3.48731 -0.224002 -5.44748 95.9982 -28.6286 20.9207 16.547 13.1301 5.4655 -0.369625 9.91382 0.00119887 -7.08081 -6.30248 -2.97773 -5.91831 23.6297 10.3998 8.47657 -19.0472 1.28374 14.0035 -33.003 18.3859 
11.3666 101.124 -38.1932 1.55373 -5.16435 -0.0618613 -0.928067 -25.5008 3.02099 13.2301 64.545 -35.173 3.84429 -5.69598 -0.117336 0.456623 -3.85742 -9.86011 -2.40041 3.57481 -1.44531 -8.30641 11.2002 0.564211 4.0841 -4.22746 -12.6991 1.14301e-015 0 -5.96354e-016 -86.4229 -11.3381 -37.0799 -21.135 12.1867 -0.859766 0.368473 9.90896 -0.00117927 4.96776 -0.393415 -6.57396 94.2751 -28.8001 20.3938 16.9859 13.2188 6.19386 -0.369625 9.91382 0.00119887 -6.94977 -4.98728 -3.62629 -6.02771 23.2929 10.7547 8.68056 -19.2763 1.33218 13.8995 -35.0438 17.9731 
